<svg width="123" height="45" viewBox="0 0 123 45" fill="none" xmlns="http://www.w3.org/2000/svg">
  <path d="M122.222 36.1191V44.0251H107.58V0.0600586H115.465V36.1191H122.222ZM59.658 21.6191C59.048 21.9131 58.41 22.0591 57.788 22.0611V7.92106H57.828C58.45 7.91606 63.092 8.10506 63.092 14.9141C63.092 18.4731 61.512 20.7181 59.658 21.6191ZM36.55 30.3001L38.733 11.5011L40.998 30.3001H36.55ZM106.205 8.08506V0.0670586H83.879L80.204 26.8461L76.574 0.0660586H68.522L69.423 7.21606C68.495 5.38406 65.199 0.0660586 57.943 0.0660586C57.896 0.0640586 49.883 0.0660586 49.883 0.0660586L49.852 39.0981L43.984 0.0670586L33.439 0.0620584L27.367 40.5021L27.369 0.0670586H17.278L13.64 22.7841L10.096 0.0660586H0V44.0321H7.95V22.8401L11.568 44.0321H15.794L19.359 22.8401V44.0321H34.686L35.614 37.2701H41.784L42.711 44.0321L57.758 44.0401H57.768V44.0321H57.788V29.7621L59.633 29.4921L63.45 44.0421H71.234L71.232 44.0321H71.254L66.243 26.9841C68.781 25.1041 71.649 20.3401 70.886 15.7811V15.7791C70.894 15.8371 75.615 44.0601 75.615 44.0601L84.871 44.0331L91.198 4.18306V44.0331H106.205V36.1251H99.081V26.0451H106.205V18.0151H99.081V8.08406L106.205 8.08506Z" fill="#FEFEFE"/>
</svg>
